<svg xmlns="http://www.w3.org/2000/svg" xmlns:xlink="http://www.w3.org/1999/xlink" xmlns:lucid="lucid" width="2092.5" height="601"><g transform="translate(712 -79.5)" lucid:page-tab-id="0_0"><path d="M-1000 0h2500v1000h-2500z" fill="#fff"/><path d="M-600 426a6 6 0 0 1 6-6h268a6 6 0 0 1 6 6v48a6 6 0 0 1-6 6h-268a6 6 0 0 1-6-6z" stroke="#3a414a" fill="url(#a)"/><use xlink:href="#b" transform="matrix(1,0,0,1,-588,432) translate(41.05555555555554 22.27777777777778)"/><use xlink:href="#c" transform="matrix(1,0,0,1,-588,432) translate(140.99382716049382 22.27777777777778)"/><path d="M-140 426a6 6 0 0 1 6-6h268a6 6 0 0 1 6 6v48a6 6 0 0 1-6 6h-268a6 6 0 0 1-6-6z" stroke="#3a414a" fill="url(#d)"/><use xlink:href="#b" transform="matrix(1,0,0,1,-128,432) translate(30.037037037037024 22.27777777777778)"/><use xlink:href="#e" transform="matrix(1,0,0,1,-128,432) translate(129.9753086419753 22.27777777777778)"/><path d="M-257.58 450.5h-45.54v-1h45.54zm116.58 0h-61.42v-1H-141z" stroke="#3a414a" stroke-width=".05" fill="#3a414a"/><path d="M-140.5 450.5h-.5v-1h.5z" fill="#3a414a"/><path d="M-140.47 450.52h-.57v-1.04h.56zm-.52-1v.96h.47v-.96z" stroke="#3a414a" stroke-width=".05" fill="#3a414a"/><path d="M-303.62 454.63l-14.26-4.63 14.26-4.63z" fill="#3a414a"/><path d="M-303.12 455.32L-319.5 450l16.38-5.32zm-13.14-5.32l12.14 3.95v-7.9z" stroke="#3a414a" stroke-width=".05" fill="#3a414a"/><use xlink:href="#f" transform="matrix(1,0,0,1,-257.5802469135802,439.3333333333333) translate(0 14.222222222222223)"/><path d="M1000 266a6 6 0 0 1 6-6h268a6 6 0 0 1 6 6v48a6 6 0 0 1-6 6h-268a6 6 0 0 1-6-6z" stroke="#3a414a" fill="url(#g)"/><use xlink:href="#h" transform="matrix(1,0,0,1,1012,272) translate(50.9320987654321 22.27777777777778)"/><use xlink:href="#i" transform="matrix(1,0,0,1,1012,272) translate(153.21604938271605 22.27777777777778)"/><path d="M-140 106a6 6 0 0 1 6-6h268a6 6 0 0 1 6 6v48a6 6 0 0 1-6 6h-268a6 6 0 0 1-6-6z" stroke="#3a414a" fill="url(#j)"/><use xlink:href="#k" transform="matrix(1,0,0,1,-128,112) translate(33.70987654320987 22.27777777777778)"/><use xlink:href="#c" transform="matrix(1,0,0,1,-128,112) translate(148.3395061728395 22.27777777777778)"/><path d="M440 266a6 6 0 0 1 6-6h268a6 6 0 0 1 6 6v48a6 6 0 0 1-6 6H446a6 6 0 0 1-6-6z" stroke="#3a414a" fill="url(#l)"/><use xlink:href="#m" transform="matrix(1,0,0,1,452,272) translate(52.44444444444446 22.27777777777778)"/><use xlink:href="#c" transform="matrix(1,0,0,1,452,272) translate(129.60493827160494 22.27777777777778)"/><path d="M1080 606a6 6 0 0 1 6-6h268a6 6 0 0 1 6 6v48a6 6 0 0 1-6 6h-268a6 6 0 0 1-6-6z" stroke="#3a414a" fill="url(#n)"/><use xlink:href="#o" transform="matrix(1,0,0,1,1092,612) translate(38.5864197530864 22.27777777777778)"/><use xlink:href="#p" transform="matrix(1,0,0,1,1092,612) translate(102.72222222222221 22.27777777777778)"/><path d="M604.22 467.85H156.88v-1h447.34zm536.28-6.48l-.08 1-.24 1-.4.93-.52.87-.66.78-.78.66-.87.54-.94.4-.98.23-1 .08H710.64v-1h423.34l.88-.07.84-.2.8-.33.73-.45.66-.56.55-.66.45-.73.33-.8.2-.84.07-.87V321h1z" stroke="#3a414a" stroke-width=".05" fill="#3a414a"/><path d="M1140.5 321h-1v-.5h1z" fill="#3a414a"/><path d="M1140.53 321.04h-1.06v-.56h1.06zm-1-.52v.47h.94v-.48z" stroke="#3a414a" stroke-width=".05" fill="#3a414a"/><path d="M156.38 472l-14.26-4.65 14.26-4.63z" fill="#3a414a"/><path d="M156.88 472.68l-16.38-5.33 16.38-5.32zm-13.14-5.33l12.14 3.95v-7.9z" stroke="#3a414a" stroke-width=".05" fill="#3a414a"/><use xlink:href="#q" transform="matrix(1,0,0,1,604.2236219386696,456.6853731591614) translate(0 14.222222222222223)"/><use xlink:href="#r" transform="matrix(1,0,0,1,604.2236219386696,456.6853731591614) translate(60.09876543209877 14.222222222222223)"/><path d="M824.87 290.5h-88v-1h88zm174.13 0h-67.7v-1H999z" stroke="#3a414a" stroke-width=".05" fill="#3a414a"/><path d="M999.5 290.5h-.5v-1h.5z" fill="#3a414a"/><path d="M999.52 290.52h-.56v-1.04h.56zm-.5-1v.96h.46v-.96z" stroke="#3a414a" stroke-width=".05" fill="#3a414a"/><path d="M736.38 294.63L722.12 290l14.26-4.63z" fill="#3a414a"/><path d="M736.88 295.32L720.5 290l16.38-5.32zM723.74 290l12.14 3.95v-7.9z" stroke="#3a414a" stroke-width=".05" fill="#3a414a"/><use xlink:href="#q" transform="matrix(1,0,0,1,824.8670590583113,279.3333333333333) translate(0 14.222222222222223)"/><use xlink:href="#r" transform="matrix(1,0,0,1,824.8670590583113,279.3333333333333) translate(60.09876543209877 14.222222222222223)"/><path d="M290.5 428.3l-.08 1-.24 1-.4.93-.52.87-.66.78-.78.66-.87.53-.94.4-.98.23-1 .08H156.88v-1h127.1l.88-.07.84-.2.8-.32.73-.45.66-.56.55-.66.45-.72.33-.8.2-.84.07-.88V372.8h1zM439 290.5H296.02l-.88.07-.84.2-.8.33-.73.45-.66.56-.55.67-.45.73-.33.8-.2.84-.07.88v55.45h-1v-55.5l.08-1 .24-.98.4-.95.52-.87.66-.78.78-.66.87-.53.94-.38.98-.24 1-.08H439z" stroke="#3a414a" stroke-width=".05" fill="#3a414a"/><path d="M439.5 290.5h-.5v-1h.5z" fill="#3a414a"/><path d="M439.52 290.52h-.56v-1.04h.56zm-.5-1v.96h.46v-.96z" stroke="#3a414a" stroke-width=".05" fill="#3a414a"/><path d="M156.38 438.92l-14.26-4.64 14.26-4.63z" fill="#3a414a"/><path d="M156.88 439.6l-16.38-5.32 16.38-5.32zm-13.14-5.32l12.14 3.95v-7.9z" stroke="#3a414a" stroke-width=".05" fill="#3a414a"/><use xlink:href="#q" transform="matrix(1,0,0,1,236.7901070825913,351.47371791207036) translate(0 14.222222222222223)"/><use xlink:href="#r" transform="matrix(1,0,0,1,236.7901070825913,351.47371791207036) translate(60.09876543209877 14.222222222222223)"/><path d="M-419.33 419h-1V249.26h1zm262.45-288.5h-256.94l-.88.07-.84.2-.8.33-.73.45-.65.56-.56.67-.46.73-.32.8-.2.84-.07.88v91.9h-1V136l.07-1 .24-1 .4-.93.52-.87.67-.78.77-.66.87-.53.96-.38 1-.24.98-.08h256.98z" stroke="#3a414a" stroke-width=".05" fill="#3a414a"/><path d="M-142.12 130l-14.26 4.63v-9.27z" fill="#3a414a"/><path d="M-140.5 130l-16.38 5.32v-10.64zm-15.38 3.95l12.14-3.95-12.14-3.95z" stroke="#3a414a" stroke-width=".05" fill="#3a414a"/><path d="M-419.33 419.5h-1v-.5h1z" fill="#3a414a"/><path d="M-419.3 419.52h-1.06v-.56h1.05zm-1-.5v.46h.94V419z" stroke="#3a414a" stroke-width=".05" fill="#3a414a"/><use xlink:href="#f" transform="matrix(1,0,0,1,-447.41563419706074,227.92908030313046) translate(0 14.222222222222223)"/><path d="M.5 419h-1V300.67h1zm0-139.67h-1V176.88h1z" stroke="#3a414a" stroke-width=".05" fill="#3a414a"/><path d="M4.63 176.38h-9.27L0 162.12z" fill="#3a414a"/><path d="M5.32 176.88H-5.32L0 160.5zm-9.27-1h7.9L0 163.74z" stroke="#3a414a" stroke-width=".05" fill="#3a414a"/><path d="M.5 419.5h-1v-.5h1z" fill="#3a414a"/><path d="M.53 419.52H-.54v-.56H.54zm-1-.5v.46h.94V419z" stroke="#3a414a" stroke-width=".05" fill="#3a414a"/><use xlink:href="#f" transform="matrix(1,0,0,1,-27.58024691358028,279.3333333333333) translate(0 14.222222222222223)"/><path d="M469.27 259h-1v-29.35h1zm-5.03-118.76l1 .23.93.4.87.53.78.66.66.78.53.87.4.95.24 1 .08 1v60.04l-.08.3-.36.32v1h-1v-1.4l.18-.37.26-.13v-59.74l-.07-.88-.2-.84-.33-.8-.45-.74-.56-.65-.65-.56-.73-.44-.8-.33-.84-.2-.88-.07H156.88v-1h306.36z" stroke="#3a414a" stroke-width=".05" fill="#3a414a"/><path d="M156.38 145.3l-14.26-4.64 14.26-4.64z" fill="#3a414a"/><path d="M156.88 145.98l-16.38-5.32 16.38-5.33zm-13.14-5.32l12.14 3.94v-7.9z" stroke="#3a414a" stroke-width=".05" fill="#3a414a"/><path d="M469.27 259.5h-1v-.5h1z" fill="#3a414a"/><path d="M469.3 259.52h-1.06v-.56h1.05zm-1-.5v.46h.94V259z" stroke="#3a414a" stroke-width=".05" fill="#3a414a"/><use xlink:href="#f" transform="matrix(1,0,0,1,441.18551209862665,208.31672388219593) translate(0 14.222222222222223)"/><path d="M1140.5 259h-1v-49.93h1zm-5.48-143.47l1 .24.93.4.87.53.78.66.66.78.53.86.38.95.24 1 .08 1v65.78h-1v-65.75l-.07-.88-.2-.84-.33-.8-.45-.74-.56-.65-.67-.56-.73-.44-.8-.33-.84-.2-.88-.07h-977.1v-1h977.14z" stroke="#3a414a" stroke-width=".05" fill="#3a414a"/><path d="M1140.5 259.5h-1v-.5h1z" fill="#3a414a"/><path d="M1140.53 259.52h-1.06v-.56h1.06zm-1-.5v.46h.94V259z" stroke="#3a414a" stroke-width=".05" fill="#3a414a"/><path d="M156.38 120.6l-14.26-4.64 14.26-4.64z" fill="#3a414a"/><path d="M156.88 121.28l-16.38-5.32 16.38-5.33zm-13.14-5.32l12.14 3.94V112z" stroke="#3a414a" stroke-width=".05" fill="#3a414a"/><use xlink:href="#f" transform="matrix(1,0,0,1,1112.4197530864199,187.7327466119255) translate(0 14.222222222222223)"/><path d="M1220.5 599h-1V470.5h1zm.33-237.56l-.17.4-.16.06v87.27h-1v-87.6l.17-.4.16-.07v-24.22h1z" stroke="#3a414a" stroke-width=".05" fill="#3a414a"/><path d="M1220.5 599.5h-1v-.5h1z" fill="#3a414a"/><path d="M1220.53 599.52h-1.06v-.56h1.06zm-1-.5v.46h.94V599z" stroke="#3a414a" stroke-width=".05" fill="#3a414a"/><path d="M1224.96 336.38h-9.27l4.63-14.26z" fill="#3a414a"/><path d="M1225.65 336.88H1215l5.33-16.38zm-9.27-1h7.9l-3.95-12.14z" stroke="#3a414a" stroke-width=".05" fill="#3a414a"/><use xlink:href="#f" transform="matrix(1,0,0,1,1192.4197530864199,449.16873541860906) translate(0 14.222222222222223)"/><path d="M-600 606a6 6 0 0 1 6-6h268a6 6 0 0 1 6 6v48a6 6 0 0 1-6 6h-268a6 6 0 0 1-6-6z" stroke="#3a414a" fill="url(#s)"/><use xlink:href="#t" transform="matrix(1,0,0,1,-588,612) translate(5.901234567901241 22.27777777777778)"/><use xlink:href="#u" transform="matrix(1,0,0,1,-588,612) translate(107.07407407407408 22.27777777777778)"/><use xlink:href="#v" transform="matrix(1,0,0,1,-588,612) translate(119.41975308641976 22.27777777777778)"/><use xlink:href="#w" transform="matrix(1,0,0,1,-588,612) translate(214.2962962962963 22.27777777777778)"/><path d="M-459.5 583.12h-1V544.4h1zm0-60.05h-1V481h1z" stroke="#3a414a" stroke-width=".05" fill="#3a414a"/><path d="M-459.5 481h-1v-.5h1z" fill="#3a414a"/><path d="M-459.48 481.04h-1.04v-.56h1.04zm-1-.52v.47h.96v-.48z" stroke="#3a414a" stroke-width=".05" fill="#3a414a"/><path d="M-460 597.88l-4.63-14.26h9.26z" fill="#3a414a"/><path d="M-460 599.5l-5.32-16.38h10.64zm-3.95-15.38l3.95 12.14 3.95-12.14z" stroke="#3a414a" stroke-width=".05" fill="#3a414a"/><use xlink:href="#x" transform="matrix(1,0,0,1,-502.8888888888889,523.0692147654605) translate(0 14.222222222222223)"/><use xlink:href="#y" transform="matrix(1,0,0,1,-502.8888888888889,523.0692147654605) translate(46.320987654320994 14.222222222222223)"/><use xlink:href="#z" transform="matrix(1,0,0,1,-502.8888888888889,523.0692147654605) translate(56.19753086419754 14.222222222222223)"/><path d="M-635.35 280.5h-68.63l-.88.07-.84.2-.8.33-.73.45-.66.56-.55.67-.45.73-.33.8-.2.84-.07.88v157.96l.07.88.2.84.33.8.45.73.56.66.67.55.73.45.8.33.84.2.88.07H-601v1h-103.02l-1-.08-1-.24-.93-.4-.87-.52-.78-.66-.66-.78-.53-.87-.38-.94-.24-.98-.08-1V285.98l.08-1 .24-1 .4-.93.52-.87.66-.78.78-.66.87-.53.94-.38.98-.24 1-.08h68.67zm118.2-.92l.98.24.95.4.87.52.77.66.66.78.54.87.4.94.23.98.07 1v117.14h-1v-117.1l-.07-.88-.2-.84-.33-.8-.45-.73-.56-.66-.64-.55-.74-.45-.8-.33-.84-.2-.88-.07h-62v-1h62.04z" stroke="#3a414a" stroke-width=".05" fill="#3a414a"/><path d="M-600.5 450.5h-.5v-1h.5z" fill="#3a414a"/><path d="M-600.48 450.52h-.56v-1.04h.56zm-.5-1v.96h.46v-.96z" stroke="#3a414a" stroke-width=".05" fill="#3a414a"/><path d="M-512.17 417.88l-4.64-14.26h9.26z" fill="#3a414a"/><path d="M-512.17 419.5l-5.33-16.38h10.65zm-3.95-15.38l3.95 12.14 3.94-12.14z" stroke="#3a414a" stroke-width=".05" fill="#3a414a"/><g><use xlink:href="#A" transform="matrix(1,0,0,1,-635.3475849854527,269.3333333333333) translate(0 14.222222222222223)"/></g><path d="M567.9 154.7h-21.88l-.88.08-.84.2-.8.33-.73.46-.66.56-.55.66-.45.73-.33.8-.2.85-.07.88v99.27h-1v-99.3l.08-1 .24-1 .4-.94.52-.87.66-.8.78-.65.87-.53.94-.4.98-.23 1-.1h21.92zm129.84-.9l1 .22.94.4.87.53.77.66.66.8.54.86.4.94.23 1 .07 1v82.92h-1v-82.9l-.07-.87-.2-.84-.33-.8-.45-.72-.56-.66-.64-.56-.74-.45-.8-.32-.84-.2-.88-.07h-22.38v-1h22.42z" stroke="#3a414a" stroke-width=".05" fill="#3a414a"/><path d="M540.5 260h-1v-.5h1z" stroke="#3a414a" stroke-width=".05" fill="#3a414a"/><path d="M702.72 257.88l-4.63-14.26h9.26z" fill="#3a414a"/><path d="M702.72 259.5l-5.32-16.38h10.65zm-3.94-15.38l3.94 12.14 3.95-12.14z" stroke="#3a414a" stroke-width=".05" fill="#3a414a"/><g><use xlink:href="#q" transform="matrix(1,0,0,1,567.9022015533067,143.54169442681953) translate(0 14.222222222222223)"/><use xlink:href="#B" transform="matrix(1,0,0,1,567.9022015533067,143.54169442681953) translate(60.09876543209877 14.222222222222223)"/></g><defs><linearGradient gradientUnits="userSpaceOnUse" id="a" x1="-600" y1="420" x2="-600" y2="480"><stop offset="0%" stop-color="#fff"/><stop offset="20%" stop-color="#fff"/><stop offset="100%" stop-color="#edf5ff"/></linearGradient><path fill="#3a414a" d="M160-131c35 5 61 23 61 61C221 17 115-2 30 0v-248c76 3 177-17 177 60 0 33-19 50-47 57zm-97-11c50-1 110 9 110-42 0-47-63-36-110-37v79zm0 115c55-2 124 14 124-45 0-56-70-42-124-44v89" id="C"/><path fill="#3a414a" d="M141-36C126-15 110 5 73 4 37 3 15-17 15-53c-1-64 63-63 125-63 3-35-9-54-41-54-24 1-41 7-42 31l-33-3c5-37 33-52 76-52 45 0 72 20 72 64v82c-1 20 7 32 28 27v20c-31 9-61-2-59-35zM48-53c0 20 12 33 32 33 41-3 63-29 60-74-43 2-92-5-92 41" id="D"/><path fill="#3a414a" d="M96-169c-40 0-48 33-48 73s9 75 48 75c24 0 41-14 43-38l32 2c-6 37-31 61-74 61-59 0-76-41-82-99-10-93 101-131 147-64 4 7 5 14 7 22l-32 3c-4-21-16-35-41-35" id="E"/><path fill="#3a414a" d="M143 0L79-87 56-68V0H24v-261h32v163l83-92h37l-77 82L181 0h-38" id="F"/><path fill="#3a414a" d="M16-82v-28h88v28H16" id="G"/><path fill="#3a414a" d="M100-194c63 0 86 42 84 106H49c0 40 14 67 53 68 26 1 43-12 49-29l28 8c-11 28-37 45-77 45C44 4 14-33 15-96c1-61 26-98 85-98zm52 81c6-60-76-77-97-28-3 7-6 17-6 28h103" id="H"/><path fill="#3a414a" d="M117-194c89-4 53 116 60 194h-32v-121c0-31-8-49-39-48C34-167 62-67 57 0H25l-1-190h30c1 10-1 24 2 32 11-22 29-35 61-36" id="I"/><path fill="#3a414a" d="M85-194c31 0 48 13 60 33l-1-100h32l1 261h-30c-2-10 0-23-3-31C134-8 116 4 85 4 32 4 16-35 15-94c0-66 23-100 70-100zm9 24c-40 0-46 34-46 75 0 40 6 74 45 74 42 0 51-32 51-76 0-42-9-74-50-73" id="J"/><g id="b"><use transform="matrix(0.06172839506172839,0,0,0.06172839506172839,0,0)" xlink:href="#C"/><use transform="matrix(0.06172839506172839,0,0,0.06172839506172839,14.814814814814813,0)" xlink:href="#D"/><use transform="matrix(0.06172839506172839,0,0,0.06172839506172839,27.160493827160494,0)" xlink:href="#E"/><use transform="matrix(0.06172839506172839,0,0,0.06172839506172839,38.27160493827161,0)" xlink:href="#F"/><use transform="matrix(0.06172839506172839,0,0,0.06172839506172839,49.38271604938272,0)" xlink:href="#G"/><use transform="matrix(0.06172839506172839,0,0,0.06172839506172839,56.7283950617284,0)" xlink:href="#H"/><use transform="matrix(0.06172839506172839,0,0,0.06172839506172839,69.07407407407408,0)" xlink:href="#I"/><use transform="matrix(0.06172839506172839,0,0,0.06172839506172839,81.41975308641976,0)" xlink:href="#J"/></g><path fill="#3a414a" d="M185-189c-5-48-123-54-124 2 14 75 158 14 163 119 3 78-121 87-175 55-17-10-28-26-33-46l33-7c5 56 141 63 141-1 0-78-155-14-162-118-5-82 145-84 179-34 5 7 8 16 11 25" id="K"/><path fill="#3a414a" d="M114-163C36-179 61-72 57 0H25l-1-190h30c1 12-1 29 2 39 6-27 23-49 58-41v29" id="L"/><path fill="#3a414a" d="M108 0H70L1-190h34L89-25l56-165h34" id="M"/><path fill="#3a414a" d="M24-231v-30h32v30H24zM24 0v-190h32V0H24" id="N"/><g id="c"><use transform="matrix(0.06172839506172839,0,0,0.06172839506172839,0,0)" xlink:href="#K"/><use transform="matrix(0.06172839506172839,0,0,0.06172839506172839,14.814814814814813,0)" xlink:href="#H"/><use transform="matrix(0.06172839506172839,0,0,0.06172839506172839,27.160493827160494,0)" xlink:href="#L"/><use transform="matrix(0.06172839506172839,0,0,0.06172839506172839,34.50617283950617,0)" xlink:href="#M"/><use transform="matrix(0.06172839506172839,0,0,0.06172839506172839,45.61728395061728,0)" xlink:href="#N"/><use transform="matrix(0.06172839506172839,0,0,0.06172839506172839,50.49382716049382,0)" xlink:href="#E"/><use transform="matrix(0.06172839506172839,0,0,0.06172839506172839,61.60493827160494,0)" xlink:href="#H"/></g><linearGradient gradientUnits="userSpaceOnUse" id="d" x1="-140" y1="420" x2="-140" y2="480"><stop offset="0%" stop-color="#fff"/><stop offset="20%" stop-color="#fff"/><stop offset="100%" stop-color="#edf5ff"/></linearGradient><path fill="#3a414a" d="M212-179c-10-28-35-45-73-45-59 0-87 40-87 99 0 60 29 101 89 101 43 0 62-24 78-52l27 14C228-24 195 4 139 4 59 4 22-46 18-125c-6-104 99-153 187-111 19 9 31 26 39 46" id="O"/><path fill="#3a414a" d="M100-194c62-1 85 37 85 99 1 63-27 99-86 99S16-35 15-95c0-66 28-99 85-99zM99-20c44 1 53-31 53-75 0-43-8-75-51-75s-53 32-53 75 10 74 51 75" id="P"/><path fill="#3a414a" d="M59-47c-2 24 18 29 38 22v24C64 9 27 4 27-40v-127H5v-23h24l9-43h21v43h35v23H59v120" id="Q"/><path fill="#3a414a" d="M24 0v-261h32V0H24" id="R"/><g id="e"><use transform="matrix(0.06172839506172839,0,0,0.06172839506172839,0,0)" xlink:href="#O"/><use transform="matrix(0.06172839506172839,0,0,0.06172839506172839,15.987654320987653,0)" xlink:href="#P"/><use transform="matrix(0.06172839506172839,0,0,0.06172839506172839,28.333333333333332,0)" xlink:href="#I"/><use transform="matrix(0.06172839506172839,0,0,0.06172839506172839,40.67901234567901,0)" xlink:href="#Q"/><use transform="matrix(0.06172839506172839,0,0,0.06172839506172839,46.851851851851855,0)" xlink:href="#L"/><use transform="matrix(0.06172839506172839,0,0,0.06172839506172839,54.19753086419753,0)" xlink:href="#P"/><use transform="matrix(0.06172839506172839,0,0,0.06172839506172839,66.54320987654322,0)" xlink:href="#R"/><use transform="matrix(0.06172839506172839,0,0,0.06172839506172839,71.41975308641976,0)" xlink:href="#R"/><use transform="matrix(0.06172839506172839,0,0,0.06172839506172839,76.2962962962963,0)" xlink:href="#H"/><use transform="matrix(0.06172839506172839,0,0,0.06172839506172839,88.64197530864199,0)" xlink:href="#L"/></g><path fill="#333" d="M25-224v-37h50v37H25zM25 0v-190h50V0H25" id="S"/><path fill="#333" d="M220-157c-53 9-28 100-34 157h-49v-107c1-27-5-49-29-50C55-147 81-57 75 0H25l-1-190h47c2 12-1 28 3 38 10-53 101-56 108 0 13-22 24-43 59-42 82 1 51 116 57 194h-49v-107c-1-25-5-48-29-50" id="T"/><path fill="#333" d="M135-194c53 0 70 44 70 98 0 56-19 98-73 100-31 1-45-17-59-34 3 33 2 69 2 105H25l-1-265h48c2 10 0 23 3 31 11-24 29-35 60-35zM114-30c33 0 39-31 40-66 0-38-9-64-40-64-56 0-55 130 0 130" id="U"/><path fill="#333" d="M110-194c64 0 96 36 96 99 0 64-35 99-97 99-61 0-95-36-95-99 0-62 34-99 96-99zm-1 164c35 0 45-28 45-65 0-40-10-65-43-65-34 0-45 26-45 65 0 36 10 65 43 65" id="V"/><path fill="#333" d="M135-150c-39-12-60 13-60 57V0H25l-1-190h47c2 13-1 29 3 40 6-28 27-53 61-41v41" id="W"/><path fill="#333" d="M115-3C79 11 28 4 28-45v-112H4v-33h27l15-45h31v45h36v33H77v99c-1 23 16 31 38 25v30" id="X"/><g id="f"><use transform="matrix(0.04938271604938272,0,0,0.04938271604938272,0,0)" xlink:href="#S"/><use transform="matrix(0.04938271604938272,0,0,0.04938271604938272,4.938271604938272,0)" xlink:href="#T"/><use transform="matrix(0.04938271604938272,0,0,0.04938271604938272,20.74074074074074,0)" xlink:href="#U"/><use transform="matrix(0.04938271604938272,0,0,0.04938271604938272,31.555555555555557,0)" xlink:href="#V"/><use transform="matrix(0.04938271604938272,0,0,0.04938271604938272,42.370370370370374,0)" xlink:href="#W"/><use transform="matrix(0.04938271604938272,0,0,0.04938271604938272,49.283950617283956,0)" xlink:href="#X"/></g><linearGradient gradientUnits="userSpaceOnUse" id="g" x1="1000" y1="260" x2="1000" y2="320"><stop offset="0%" stop-color="#fff"/><stop offset="20%" stop-color="#fff"/><stop offset="100%" stop-color="#edf5ff"/></linearGradient><path fill="#3a414a" d="M63-220v92h138v28H63V0H30v-248h175v28H63" id="Y"/><g id="h"><use transform="matrix(0.06172839506172839,0,0,0.06172839506172839,0,0)" xlink:href="#Y"/><use transform="matrix(0.06172839506172839,0,0,0.06172839506172839,13.518518518518517,0)" xlink:href="#L"/><use transform="matrix(0.06172839506172839,0,0,0.06172839506172839,20.864197530864196,0)" xlink:href="#P"/><use transform="matrix(0.06172839506172839,0,0,0.06172839506172839,33.20987654320987,0)" xlink:href="#I"/><use transform="matrix(0.06172839506172839,0,0,0.06172839506172839,45.55555555555555,0)" xlink:href="#Q"/><use transform="matrix(0.06172839506172839,0,0,0.06172839506172839,51.72839506172839,0)" xlink:href="#G"/><use transform="matrix(0.06172839506172839,0,0,0.06172839506172839,59.07407407407407,0)" xlink:href="#H"/><use transform="matrix(0.06172839506172839,0,0,0.06172839506172839,71.41975308641975,0)" xlink:href="#I"/><use transform="matrix(0.06172839506172839,0,0,0.06172839506172839,83.76543209876543,0)" xlink:href="#J"/></g><g id="i"><use transform="matrix(0.06172839506172839,0,0,0.06172839506172839,0,0)" xlink:href="#K"/><use transform="matrix(0.06172839506172839,0,0,0.06172839506172839,14.814814814814813,0)" xlink:href="#Q"/><use transform="matrix(0.06172839506172839,0,0,0.06172839506172839,20.98765432098765,0)" xlink:href="#D"/><use transform="matrix(0.06172839506172839,0,0,0.06172839506172839,33.33333333333333,0)" xlink:href="#Q"/><use transform="matrix(0.06172839506172839,0,0,0.06172839506172839,39.50617283950617,0)" xlink:href="#H"/></g><linearGradient gradientUnits="userSpaceOnUse" id="j" x1="-140" y1="100" x2="-140" y2="160"><stop offset="0%" stop-color="#fff"/><stop offset="20%" stop-color="#fff"/><stop offset="100%" stop-color="#edf5ff"/></linearGradient><path fill="#3a414a" d="M33 0v-248h34V0H33" id="Z"/><path fill="#3a414a" d="M135-143c-3-34-86-38-87 0 15 53 115 12 119 90S17 21 10-45l28-5c4 36 97 45 98 0-10-56-113-15-118-90-4-57 82-63 122-42 12 7 21 19 24 35" id="aa"/><path fill="#3a414a" d="M210-169c-67 3-38 105-44 169h-31v-121c0-29-5-50-35-48C34-165 62-65 56 0H25l-1-190h30c1 10-1 24 2 32 10-44 99-50 107 0 11-21 27-35 58-36 85-2 47 119 55 194h-31v-121c0-29-5-49-35-48" id="ab"/><path fill="#3a414a" d="M115-194c55 1 70 41 70 98S169 2 115 4C84 4 66-9 55-30l1 105H24l-1-265h31l2 30c10-21 28-34 59-34zm-8 174c40 0 45-34 45-75s-6-73-45-74c-42 0-51 32-51 76 0 43 10 73 51 73" id="ac"/><path fill="#3a414a" d="M106-169C34-169 62-67 57 0H25v-261h32l-1 103c12-21 28-36 61-36 89 0 53 116 60 194h-32v-121c2-32-8-49-39-48" id="ad"/><g id="k"><use transform="matrix(0.06172839506172839,0,0,0.06172839506172839,0,0)" xlink:href="#Z"/><use transform="matrix(0.06172839506172839,0,0,0.06172839506172839,6.172839506172839,0)" xlink:href="#aa"/><use transform="matrix(0.06172839506172839,0,0,0.06172839506172839,17.28395061728395,0)" xlink:href="#P"/><use transform="matrix(0.06172839506172839,0,0,0.06172839506172839,29.629629629629626,0)" xlink:href="#ab"/><use transform="matrix(0.06172839506172839,0,0,0.06172839506172839,48.08641975308642,0)" xlink:href="#P"/><use transform="matrix(0.06172839506172839,0,0,0.06172839506172839,60.432098765432094,0)" xlink:href="#L"/><use transform="matrix(0.06172839506172839,0,0,0.06172839506172839,67.77777777777777,0)" xlink:href="#ac"/><use transform="matrix(0.06172839506172839,0,0,0.06172839506172839,80.12345679012346,0)" xlink:href="#ad"/><use transform="matrix(0.06172839506172839,0,0,0.06172839506172839,92.46913580246914,0)" xlink:href="#N"/><use transform="matrix(0.06172839506172839,0,0,0.06172839506172839,97.34567901234568,0)" xlink:href="#E"/></g><linearGradient gradientUnits="userSpaceOnUse" id="l" x1="440" y1="260" x2="440" y2="320"><stop offset="0%" stop-color="#fff"/><stop offset="20%" stop-color="#fff"/><stop offset="100%" stop-color="#edf5ff"/></linearGradient><path fill="#3a414a" d="M266 0h-40l-56-210L115 0H75L2-248h35L96-30l15-64 43-154h32l59 218 59-218h35" id="ae"/><g id="m"><use transform="matrix(0.06172839506172839,0,0,0.06172839506172839,0,0)" xlink:href="#ae"/><use transform="matrix(0.06172839506172839,0,0,0.06172839506172839,20.493827160493826,0)" xlink:href="#P"/><use transform="matrix(0.06172839506172839,0,0,0.06172839506172839,32.839506172839506,0)" xlink:href="#L"/><use transform="matrix(0.06172839506172839,0,0,0.06172839506172839,40.18518518518518,0)" xlink:href="#F"/><use transform="matrix(0.06172839506172839,0,0,0.06172839506172839,51.29629629629629,0)" xlink:href="#H"/><use transform="matrix(0.06172839506172839,0,0,0.06172839506172839,63.641975308641975,0)" xlink:href="#L"/></g><linearGradient gradientUnits="userSpaceOnUse" id="n" x1="1080" y1="600" x2="1080" y2="660"><stop offset="0%" stop-color="#fff"/><stop offset="20%" stop-color="#fff"/><stop offset="100%" stop-color="#f7f4e4"/></linearGradient><path fill="#3a414a" d="M233-177c-1 41-23 64-60 70L243 0h-38l-65-103H63V0H30v-248c88 3 205-21 203 71zM63-129c60-2 137 13 137-47 0-61-80-42-137-45v92" id="af"/><g id="o"><use transform="matrix(0.06172839506172839,0,0,0.06172839506172839,0,0)" xlink:href="#af"/><use transform="matrix(0.06172839506172839,0,0,0.06172839506172839,15.987654320987653,0)" xlink:href="#H"/><use transform="matrix(0.06172839506172839,0,0,0.06172839506172839,28.333333333333332,0)" xlink:href="#D"/><use transform="matrix(0.06172839506172839,0,0,0.06172839506172839,40.67901234567901,0)" xlink:href="#E"/><use transform="matrix(0.06172839506172839,0,0,0.06172839506172839,51.79012345679013,0)" xlink:href="#Q"/></g><g id="p"><use transform="matrix(0.06172839506172839,0,0,0.06172839506172839,0,0)" xlink:href="#O"/><use transform="matrix(0.06172839506172839,0,0,0.06172839506172839,15.987654320987653,0)" xlink:href="#P"/><use transform="matrix(0.06172839506172839,0,0,0.06172839506172839,28.333333333333332,0)" xlink:href="#ab"/><use transform="matrix(0.06172839506172839,0,0,0.06172839506172839,46.79012345679012,0)" xlink:href="#ac"/><use transform="matrix(0.06172839506172839,0,0,0.06172839506172839,59.1358024691358,0)" xlink:href="#P"/><use transform="matrix(0.06172839506172839,0,0,0.06172839506172839,71.48148148148148,0)" xlink:href="#I"/><use transform="matrix(0.06172839506172839,0,0,0.06172839506172839,83.82716049382717,0)" xlink:href="#H"/><use transform="matrix(0.06172839506172839,0,0,0.06172839506172839,96.17283950617285,0)" xlink:href="#I"/><use transform="matrix(0.06172839506172839,0,0,0.06172839506172839,108.51851851851853,0)" xlink:href="#Q"/></g><g id="q"><use transform="matrix(0.04938271604938272,0,0,0.04938271604938272,0,0)" xlink:href="#S"/><use transform="matrix(0.04938271604938272,0,0,0.04938271604938272,4.938271604938272,0)" xlink:href="#T"/><use transform="matrix(0.04938271604938272,0,0,0.04938271604938272,20.74074074074074,0)" xlink:href="#U"/><use transform="matrix(0.04938271604938272,0,0,0.04938271604938272,31.555555555555557,0)" xlink:href="#V"/><use transform="matrix(0.04938271604938272,0,0,0.04938271604938272,42.370370370370374,0)" xlink:href="#W"/><use transform="matrix(0.04938271604938272,0,0,0.04938271604938272,49.283950617283956,0)" xlink:href="#X"/></g><path fill="#333" d="M190-63c-7 42-38 67-86 67-59 0-84-38-90-98-12-110 154-137 174-36l-49 2c-2-19-15-32-35-32-30 0-35 28-38 64-6 74 65 87 74 30" id="ag"/><path fill="#333" d="M25 0v-261h50V0H25" id="ah"/><path fill="#333" d="M185-48c-13 30-37 53-82 52C43 2 14-33 14-96s30-98 90-98c62 0 83 45 84 108H66c0 31 8 55 39 56 18 0 30-7 34-22zm-45-69c5-46-57-63-70-21-2 6-4 13-4 21h74" id="ai"/><path fill="#333" d="M135-194c87-1 58 113 63 194h-50c-7-57 23-157-34-157-59 0-34 97-39 157H25l-1-190h47c2 12-1 28 3 38 12-26 28-41 61-42" id="aj"/><g id="r"><use transform="matrix(0.04938271604938272,0,0,0.04938271604938272,0,0)" xlink:href="#ag"/><use transform="matrix(0.04938271604938272,0,0,0.04938271604938272,9.876543209876544,0)" xlink:href="#ah"/><use transform="matrix(0.04938271604938272,0,0,0.04938271604938272,14.814814814814817,0)" xlink:href="#S"/><use transform="matrix(0.04938271604938272,0,0,0.04938271604938272,19.75308641975309,0)" xlink:href="#ai"/><use transform="matrix(0.04938271604938272,0,0,0.04938271604938272,29.629629629629633,0)" xlink:href="#aj"/><use transform="matrix(0.04938271604938272,0,0,0.04938271604938272,40.44444444444445,0)" xlink:href="#X"/></g><linearGradient gradientUnits="userSpaceOnUse" id="s" x1="-600" y1="600" x2="-600" y2="660"><stop offset="0%" stop-color="#fff"/><stop offset="20%" stop-color="#fff"/><stop offset="99.59%" stop-color="#e3fae3"/></linearGradient><path fill="#3a414a" d="M30-248c118-7 216 8 213 122C240-48 200 0 122 0H30v-248zM63-27c89 8 146-16 146-99s-60-101-146-95v194" id="ak"/><path fill="#3a414a" d="M115-194c53 0 69 39 70 98 0 66-23 100-70 100C84 3 66-7 56-30L54 0H23l1-261h32v101c10-23 28-34 59-34zm-8 174c40 0 45-34 45-75 0-40-5-75-45-74-42 0-51 32-51 76 0 43 10 73 51 73" id="al"/><g id="t"><use transform="matrix(0.06172839506172839,0,0,0.06172839506172839,0,0)" xlink:href="#ak"/><use transform="matrix(0.06172839506172839,0,0,0.06172839506172839,15.987654320987653,0)" xlink:href="#D"/><use transform="matrix(0.06172839506172839,0,0,0.06172839506172839,28.333333333333332,0)" xlink:href="#Q"/><use transform="matrix(0.06172839506172839,0,0,0.06172839506172839,34.50617283950617,0)" xlink:href="#D"/><use transform="matrix(0.06172839506172839,0,0,0.06172839506172839,46.85185185185185,0)" xlink:href="#al"/><use transform="matrix(0.06172839506172839,0,0,0.06172839506172839,59.197530864197525,0)" xlink:href="#D"/><use transform="matrix(0.06172839506172839,0,0,0.06172839506172839,71.5432098765432,0)" xlink:href="#aa"/><use transform="matrix(0.06172839506172839,0,0,0.06172839506172839,82.65432098765432,0)" xlink:href="#H"/></g><path fill="#3a414a" d="M0 4l72-265h28L28 4H0" id="am"/><use transform="matrix(0.06172839506172839,0,0,0.06172839506172839,0,0)" xlink:href="#am" id="u"/><path fill="#3a414a" d="M126-127c33 6 58 20 58 59 0 88-139 92-164 29-3-8-5-16-6-25l32-3c6 27 21 44 54 44 32 0 52-15 52-46 0-38-36-46-79-43v-28c39 1 72-4 72-42 0-27-17-43-46-43-28 0-47 15-49 41l-32-3c6-42 35-63 81-64 48-1 79 21 79 65 0 36-21 52-52 59" id="an"/><path fill="#3a414a" d="M179-190L93 31C79 59 56 82 12 73V49c39 6 53-20 64-50L1-190h34L92-34l54-156h33" id="ao"/><g id="v"><use transform="matrix(0.06172839506172839,0,0,0.06172839506172839,0,0)" xlink:href="#an"/><use transform="matrix(0.06172839506172839,0,0,0.06172839506172839,12.345679012345679,0)" xlink:href="#L"/><use transform="matrix(0.06172839506172839,0,0,0.06172839506172839,19.691358024691358,0)" xlink:href="#J"/><use transform="matrix(0.06172839506172839,0,0,0.06172839506172839,32.03703703703704,0)" xlink:href="#G"/><use transform="matrix(0.06172839506172839,0,0,0.06172839506172839,39.382716049382715,0)" xlink:href="#ac"/><use transform="matrix(0.06172839506172839,0,0,0.06172839506172839,51.72839506172839,0)" xlink:href="#D"/><use transform="matrix(0.06172839506172839,0,0,0.06172839506172839,64.07407407407408,0)" xlink:href="#L"/><use transform="matrix(0.06172839506172839,0,0,0.06172839506172839,71.41975308641976,0)" xlink:href="#Q"/><use transform="matrix(0.06172839506172839,0,0,0.06172839506172839,77.5925925925926,0)" xlink:href="#ao"/></g><path fill="#3a414a" d="M205 0l-28-72H64L36 0H1l101-248h38L239 0h-34zm-38-99l-47-123c-12 45-31 82-46 123h93" id="ap"/><path fill="#3a414a" d="M30-248c87 1 191-15 191 75 0 78-77 80-158 76V0H30v-248zm33 125c57 0 124 11 124-50 0-59-68-47-124-48v98" id="aq"/><g id="w"><use transform="matrix(0.06172839506172839,0,0,0.06172839506172839,0,0)" xlink:href="#ap"/><use transform="matrix(0.06172839506172839,0,0,0.06172839506172839,14.814814814814813,0)" xlink:href="#aq"/><use transform="matrix(0.06172839506172839,0,0,0.06172839506172839,29.629629629629626,0)" xlink:href="#Z"/></g><path fill="#333" d="M140-251c80 0 125 45 125 126S219 4 139 4C58 4 15-44 15-125s44-126 125-126zm-1 214c52 0 73-35 73-88 0-50-21-86-72-86-52 0-73 35-73 86s22 88 72 88" id="ar"/><path fill="#333" d="M240-174c0 40-23 61-54 70L253 0h-59l-57-94H76V0H24v-248c93 4 217-23 216 74zM76-134c48-2 112 12 112-38 0-48-66-32-112-35v73" id="as"/><path fill="#333" d="M230 0l2-204L168 0h-37L68-204 70 0H24v-248h70l56 185 57-185h69V0h-46" id="at"/><g id="x"><use transform="matrix(0.04938271604938272,0,0,0.04938271604938272,0,0)" xlink:href="#ar"/><use transform="matrix(0.04938271604938272,0,0,0.04938271604938272,13.827160493827162,0)" xlink:href="#as"/><use transform="matrix(0.04938271604938272,0,0,0.04938271604938272,26.617283950617285,0)" xlink:href="#at"/></g><path fill="#333" d="M4 7l51-268h42L46 7H4" id="au"/><use transform="matrix(0.04938271604938272,0,0,0.04938271604938272,0,0)" xlink:href="#au" id="y"/><path fill="#333" d="M199 0l-22-63H83L61 0H9l90-248h61L250 0h-51zm-33-102l-36-108c-10 38-24 72-36 108h72" id="av"/><path fill="#333" d="M24-248c93 1 206-16 204 79-1 75-69 88-152 82V0H24v-248zm52 121c47 0 100 7 100-41 0-47-54-39-100-39v80" id="aw"/><path fill="#333" d="M24 0v-248h52V0H24" id="ax"/><g id="z"><use transform="matrix(0.04938271604938272,0,0,0.04938271604938272,0,0)" xlink:href="#av"/><use transform="matrix(0.04938271604938272,0,0,0.04938271604938272,12.790123456790125,0)" xlink:href="#aw"/><use transform="matrix(0.04938271604938272,0,0,0.04938271604938272,24.641975308641978,0)" xlink:href="#ax"/></g><g id="A"><use transform="matrix(0.04938271604938272,0,0,0.04938271604938272,0,0)" xlink:href="#ax"/><use transform="matrix(0.04938271604938272,0,0,0.04938271604938272,4.938271604938272,0)" xlink:href="#T"/><use transform="matrix(0.04938271604938272,0,0,0.04938271604938272,20.74074074074074,0)" xlink:href="#U"/><use transform="matrix(0.04938271604938272,0,0,0.04938271604938272,31.555555555555557,0)" xlink:href="#V"/><use transform="matrix(0.04938271604938272,0,0,0.04938271604938272,42.370370370370374,0)" xlink:href="#W"/><use transform="matrix(0.04938271604938272,0,0,0.04938271604938272,49.283950617283956,0)" xlink:href="#X"/></g><g id="B"><use transform="matrix(0.04938271604938272,0,0,0.04938271604938272,0,0)" xlink:href="#ag"/><use transform="matrix(0.04938271604938272,0,0,0.04938271604938272,9.876543209876544,0)" xlink:href="#ah"/><use transform="matrix(0.04938271604938272,0,0,0.04938271604938272,14.814814814814817,0)" xlink:href="#ai"/><use transform="matrix(0.04938271604938272,0,0,0.04938271604938272,24.69135802469136,0)" xlink:href="#S"/><use transform="matrix(0.04938271604938272,0,0,0.04938271604938272,29.629629629629633,0)" xlink:href="#aj"/><use transform="matrix(0.04938271604938272,0,0,0.04938271604938272,40.44444444444445,0)" xlink:href="#X"/></g></defs></g></svg>